# xmcd CD database file
#
# Track frame offsets:
#	150
#	27134
#	49336
#	76579
#	96091
#	121244
#	148075
#	170318
#	188582
#	210720
#	233121
#
# Disc length: 3400 seconds
#
# Revision: 2
# Processed by: cddbd v1.5.1PL0 Copyright (c) Steve Scherf et al.
# Submitted via: CDex 1.51
#
DISCID=870d460b
DTITLE=Mistaken Identity - Wondering
DYEAR=2002
DGENRE=Jazz
TTITLE0=Higher Ground
TTITLE1=Pastime Paradise
TTITLE2=If She Breaks Your Heart
TTITLE3=Master Blaster
TTITLE4=Another Star
TTITLE5=He's Mister Know-It-All
TTITLE6=Fun Day
TTITLE7=Ffree
TTITLE8=For Once In My Life
TTITLE9=Please Don't Go
TTITLE10=Part Time Lover
EXTD=YEAR: 2002
EXTT0=
EXTT1=
EXTT2=
EXTT3=
EXTT4=
EXTT5=
EXTT6=
EXTT7=
EXTT8=
EXTT9=
EXTT10=
PLAYORDER=
